<?xml version="1.0" encoding="utf-8"?>
<!-- Generator: Adobe Illustrator 25.3.1, SVG Export Plug-In . SVG Version: 6.00 Build 0)  -->
<svg version="1.1" id="图层_1" xmlns="http://www.w3.org/2000/svg" xmlns:xlink="http://www.w3.org/1999/xlink" x="0px" y="0px"
	 viewBox="0 0 414.6 114.7" style="enable-background:new 0 0 414.6 114.7;" xml:space="preserve">
<style type="text/css">
	.st0{fill-rule:evenodd;clip-rule:evenodd;fill:#FFFFFF;}
</style>
<path class="st0" d="M303.6,114.6V0.2h45.8c10.3,0,18.3,0.6,23.7,1.7c27.9,5.5,41.4,29.3,41.4,54.9c0,26.2-11.9,55.5-41.6,57.9
	c-6.3,0.5-13.4-0.1-21.4-0.1H303.6L303.6,114.6z M324.9,94.2L324.9,94.2l24.7,0.1c11.5,0.1,21.7,1.5,30.7-5.7
	c13.8-10.9,16.8-40,6.5-55.6c-9.3-14.1-21.5-14-37.6-14h-24.3V94.2z"/>
<rect x="236.1" y="0" class="st0" width="21.2" height="114.7"/>
<rect x="269.3" y="0.1" class="st0" width="20.2" height="114.6"/>
<path class="st0" d="M223,83.9c-10.4,18.2-28.8,30.1-50.6,30.9c-32.5,1.2-60.4-24.3-60.4-57.2c0-32.8,20.6-53.5,49.8-56.7
	c23.9-2.7,49.5,6.3,61,29.5v0.2l-24.4,0.1C179.8,8.9,132,18.8,133.1,57.9c0.7,25.5,22.2,36.4,38.7,36.6c6.2-0.1,15.5-0.2,26.4-11.1
	L223,83.9z"/>
<path class="st0" d="M51.5,18.9c-6.8,0-22.6,2.6-22.6,11.4c-0.4,11.1,23,13.6,29.3,14.9c16.5,3.5,47.4,11,47.5,33.8
	c-0.3,27.6-32.6,37.4-54.4,35.7c-23.9,0-46.4-11-51.3-35.5l23.2,0c3.6,12,19.4,15.5,28.8,15.5c8.2,0,31-2.5,30.7-15.3
	c-0.4-14-29.5-14.1-38.5-16.1C28.7,60,17.7,55.9,11.1,51c-6.5-4.8-9.8-11.3-9.8-19.4c0-9.3,4.8-16.9,14.4-22.8C25.3,3,37.7,0,52.7,0
	c13.9,0,25.7,3,35.6,9c9.8,6,15.1,13.4,15.8,22.3H81.7C78.3,21.7,60.9,18.9,51.5,18.9z"/>
<path class="st0" d="M303.6,114.6V0.2h45.8c10.3,0,18.3,0.6,23.7,1.7c27.9,5.5,41.4,29.3,41.4,54.9c0,26.2-11.9,55.5-41.6,57.9
	c-6.3,0.5-13.4-0.1-21.4-0.1H303.6L303.6,114.6z M324.9,94.2L324.9,94.2l24.7,0.1c11.5,0.1,21.7,1.5,30.7-5.7
	c13.8-10.9,16.8-40,6.5-55.6c-9.3-14.1-21.5-14-37.6-14h-24.3V94.2z"/>
<rect x="236.1" y="0" class="st0" width="21.2" height="114.7"/>
<rect x="269.3" y="0.1" class="st0" width="20.2" height="114.6"/>
<path class="st0" d="M223,83.9c-10.4,18.2-28.8,30.1-50.6,30.9c-32.5,1.2-60.4-24.3-60.4-57.2c0-32.8,20.6-53.5,49.8-56.7
	c23.9-2.7,49.5,6.3,61,29.5v0.2l-24.4,0.1C179.8,8.9,132,18.8,133.1,57.9c0.7,25.5,22.2,36.4,38.7,36.6c6.2-0.1,15.5-0.2,26.4-11.1
	L223,83.9z"/>
<path class="st0" d="M51.5,18.9c-6.8,0-22.6,2.6-22.6,11.4c-0.4,11.1,23,13.6,29.3,14.9c16.5,3.5,47.4,11,47.5,33.8
	c-0.3,27.6-32.6,37.4-54.4,35.7c-23.9,0-46.4-11-51.3-35.5l23.2,0c3.6,12,19.4,15.5,28.8,15.5c8.2,0,31-2.5,30.7-15.3
	c-0.4-14-29.5-14.1-38.5-16.1C28.7,60,17.7,55.9,11.1,51c-6.5-4.8-9.8-11.3-9.8-19.4c0-9.3,4.8-16.9,14.4-22.8C25.3,3,37.7,0,52.7,0
	c13.9,0,25.7,3,35.6,9c9.8,6,15.1,13.4,15.8,22.3H81.7C78.3,21.7,60.9,18.9,51.5,18.9z"/>
</svg>
